<?xml version="1.0" standalone="no"?>
<!DOCTYPE svg PUBLIC "-//W3C//DTD SVG 20010904//EN"
 "http://www.w3.org/TR/2001/REC-SVG-20010904/DTD/svg10.dtd">
<svg version="1.0" xmlns="http://www.w3.org/2000/svg"
 width="1675.000000pt" height="1675.000000pt" viewBox="0 0 1675.000000 1675.000000"
 preserveAspectRatio="xMidYMid meet">
<metadata>
Created by potrace 1.11, written by Peter Selinger 2001-2013
</metadata>
<g transform="translate(0.000000,1675.000000) scale(0.100000,-0.100000)"
fill="#000000" stroke="none">
<path d="M7965 16691 c-84 -48 -566 -322 -673 -383 -40 -22 -161 -92 -217
-124 -22 -13 -47 -27 -55 -31 -8 -4 -35 -19 -61 -33 -25 -15 -65 -38 -90 -52
-48 -27 -520 -295 -634 -360 -65 -38 -116 -67 -190 -108 -16 -9 -226 -128
-465 -265 -1097 -624 -2121 -1205 -2173 -1234 -16 -9 -36 -20 -46 -26 -9 -5
-64 -37 -121 -69 -58 -32 -122 -69 -142 -82 -21 -13 -40 -24 -43 -24 -3 0 -22
-11 -43 -23 -20 -13 -64 -39 -97 -57 -33 -18 -73 -42 -90 -52 -16 -10 -37 -21
-45 -25 -7 -4 -99 -55 -204 -115 -104 -59 -191 -108 -193 -108 -2 0 -20 -11
-41 -23 -20 -13 -57 -35 -82 -49 -25 -14 -126 -72 -225 -128 -99 -56 -202
-115 -230 -130 -27 -15 -158 -89 -290 -165 -132 -75 -256 -146 -275 -156 -19
-11 -42 -23 -50 -28 -22 -14 -130 -76 -170 -98 -19 -11 -61 -35 -93 -52 l-57
-33 0 -4228 0 -4228 67 -40 c62 -36 168 -98 328 -190 33 -19 74 -42 90 -52 17
-10 84 -49 150 -87 66 -39 160 -93 208 -122 49 -28 93 -51 98 -51 5 0 9 -4 9
-9 0 -5 6 -11 12 -13 11 -3 253 -140 298 -169 26 -16 482 -280 540 -312 30
-16 60 -33 65 -37 6 -5 179 -106 385 -225 688 -399 945 -548 975 -566 17 -10
41 -24 55 -32 14 -7 97 -55 185 -107 216 -125 462 -268 505 -292 19 -11 60
-35 90 -53 30 -18 170 -100 310 -181 140 -81 336 -194 435 -252 99 -58 198
-115 220 -127 22 -13 78 -45 125 -72 47 -28 199 -116 338 -197 139 -80 271
-158 292 -171 22 -14 42 -25 44 -25 3 0 57 -31 122 -70 64 -38 118 -70 120
-70 3 0 97 -54 382 -222 73 -43 136 -78 138 -78 3 0 25 -13 49 -30 24 -16 46
-30 48 -30 2 0 82 -46 178 -101 96 -56 199 -116 229 -132 30 -17 75 -43 99
-59 57 -36 74 -35 141 5 30 18 80 47 110 64 30 17 143 81 250 143 107 62 215
124 240 138 25 13 52 31 61 38 8 8 18 14 21 14 4 0 62 33 283 160 92 52 429
247 485 280 36 21 124 71 195 113 332 191 556 321 645 373 30 18 74 43 97 56
73 41 266 152 313 180 25 15 56 33 70 41 14 7 84 47 155 89 72 41 276 159 455
263 179 103 397 229 485 280 508 294 604 349 640 369 83 46 451 260 477 277
15 11 29 19 32 19 3 0 43 22 88 49 114 67 723 418 778 449 25 14 57 33 72 43
14 11 28 19 30 19 3 0 142 79 309 176 167 97 322 186 344 199 22 12 67 38 100
57 33 20 83 49 111 64 27 16 121 70 208 119 l158 90 -6 570 c-7 603 -11 872
-21 1415 -3 184 -7 490 -10 680 -3 190 -7 480 -10 645 -3 165 -8 453 -10 640
-3 187 -7 464 -10 615 -3 151 -7 453 -10 670 -3 217 -8 499 -10 625 -5 262
-14 784 -20 1175 -2 146 -7 459 -11 695 -3 237 -7 479 -8 540 l-2 110 -104 61
c-58 33 -235 137 -395 229 -159 93 -404 235 -544 317 -140 81 -258 148 -262
148 -5 0 -9 5 -9 10 0 6 -4 10 -9 10 -5 0 -44 20 -85 45 -42 25 -79 45 -82 45
-3 0 -20 10 -37 22 -17 12 -45 29 -61 38 -32 17 -118 67 -371 215 -82 48 -168
98 -190 111 -45 25 -242 139 -265 153 -8 6 -80 48 -160 94 -271 157 -884 514
-1049 611 -90 53 -165 96 -168 96 -2 0 -20 11 -41 23 -20 13 -149 89 -287 169
-137 80 -360 210 -495 288 -135 79 -272 159 -305 178 -33 19 -77 44 -97 56
-21 12 -141 82 -269 156 -127 74 -275 160 -328 191 -118 68 -298 173 -771 449
-201 117 -378 220 -395 230 -16 9 -112 65 -213 123 -100 59 -193 107 -205 106
-12 0 -67 -26 -122 -58z m283 -853 c59 -34 130 -75 157 -90 28 -16 57 -33 65
-38 15 -10 264 -154 495 -286 72 -41 137 -79 145 -84 32 -20 178 -104 230
-133 30 -17 84 -48 119 -69 34 -21 64 -38 66 -38 1 0 108 -61 236 -136 129
-75 252 -146 274 -158 22 -13 126 -72 230 -133 105 -60 282 -163 395 -228 113
-65 275 -159 360 -208 85 -50 214 -124 285 -165 444 -255 536 -308 592 -343
34 -22 65 -39 67 -39 4 0 247 -139 376 -215 14 -8 131 -76 260 -151 129 -74
242 -139 250 -145 48 -29 171 -99 176 -99 3 0 18 -8 32 -19 15 -10 45 -29 67
-41 69 -38 570 -328 783 -452 111 -65 228 -132 260 -149 31 -17 60 -34 65 -38
6 -6 -246 -161 -358 -220 -16 -9 -31 -19 -33 -23 -2 -5 -8 -8 -13 -8 -5 0 -26
-11 -47 -24 -20 -13 -120 -72 -222 -131 -102 -59 -202 -119 -224 -132 -21 -14
-57 -35 -80 -47 -40 -22 -83 -47 -326 -191 -63 -37 -128 -75 -145 -85 -16 -10
-120 -70 -230 -135 -110 -65 -236 -139 -280 -165 -415 -243 -626 -367 -657
-387 -21 -12 -39 -23 -42 -23 -2 0 -35 -19 -72 -42 -38 -23 -171 -101 -296
-174 -125 -73 -245 -144 -267 -158 -22 -15 -43 -26 -46 -26 -2 0 -28 -15 -58
-32 -85 -53 -87 -54 -192 -114 -55 -32 -119 -70 -142 -86 -23 -15 -44 -28 -46
-28 -3 0 -41 -21 -84 -46 -153 -91 -539 -318 -623 -366 -47 -27 -119 -70 -160
-95 -41 -25 -93 -55 -115 -67 -110 -62 -512 -301 -523 -311 -11 -10 -13 -51
-12 -181 5 -525 9 -884 15 -1344 9 -686 17 -1514 15 -1583 0 -10 -18 -26 -44
-40 -51 -26 -139 -73 -213 -114 -28 -15 -71 -39 -95 -52 -23 -13 -65 -36 -93
-51 -27 -15 -81 -44 -120 -65 -38 -21 -104 -57 -147 -81 -64 -35 -80 -40 -96
-30 -68 38 -143 82 -267 156 -77 46 -162 96 -190 112 -27 16 -57 33 -65 38 -8
5 -87 52 -176 105 l-161 94 0 1533 0 1533 -335 195 c-184 107 -404 235 -489
284 -85 49 -278 161 -429 249 -151 88 -288 168 -305 177 -16 10 -113 65 -215
125 -188 108 -221 128 -435 252 -66 39 -246 143 -400 233 -154 89 -320 186
-370 215 -49 29 -124 72 -165 96 -41 24 -84 49 -95 56 -11 6 -33 19 -50 27
-16 9 -37 20 -45 26 -14 9 -326 191 -395 230 -30 17 -118 68 -178 104 -18 10
-106 61 -197 113 -176 102 -348 202 -495 288 -191 113 -523 304 -633 366 -40
23 -70 45 -65 49 4 4 113 68 241 141 127 74 253 147 280 162 26 15 56 32 67
37 11 6 34 19 50 29 17 10 89 52 161 93 71 41 141 82 155 91 13 8 47 28 75 44
41 23 209 119 377 217 85 49 686 396 717 414 71 40 418 241 505 292 50 28 108
62 130 75 22 12 101 57 175 100 74 43 149 86 165 95 155 89 333 192 345 200 8
5 42 24 75 43 82 47 96 55 375 217 135 78 263 152 285 164 22 12 111 63 197
114 86 50 172 100 190 110 18 11 92 53 165 95 72 42 147 85 165 95 18 11 105
61 193 112 88 51 185 106 215 123 30 16 62 36 71 43 8 8 19 14 22 14 4 0 44
22 89 49 319 189 625 360 636 356 8 -3 62 -33 120 -67z m-6536 -4218 c35 -22
69 -40 76 -40 6 0 12 -4 12 -9 0 -5 8 -11 18 -15 9 -3 24 -10 32 -15 25 -16
236 -139 287 -168 26 -14 75 -43 108 -63 34 -20 68 -40 75 -44 8 -4 24 -12 35
-19 17 -10 92 -54 258 -150 158 -92 188 -111 195 -126 4 -9 7 -1392 7 -3074
-1 -1681 1 -3061 4 -3065 8 -10 69 -52 76 -52 3 0 52 -30 110 -67 57 -38 141
-90 185 -118 44 -27 146 -91 225 -142 l145 -92 0 42 c0 23 0 1413 0 3090 0
1676 3 3047 6 3047 7 0 48 -22 54 -29 3 -3 21 -14 40 -23 19 -10 42 -22 50
-28 8 -6 67 -40 130 -77 63 -36 169 -97 235 -136 66 -38 140 -81 164 -94 24
-14 103 -60 175 -102 73 -43 138 -80 146 -84 8 -4 31 -17 51 -30 20 -12 102
-60 183 -107 81 -47 162 -93 179 -103 18 -11 106 -62 197 -115 91 -52 246
-142 345 -200 99 -58 205 -119 235 -135 30 -17 78 -46 107 -64 29 -18 55 -33
58 -33 3 0 22 -11 43 -24 39 -25 326 -192 402 -234 25 -14 63 -37 85 -51 l39
-26 1 -1489 0 -1490 92 -65 c50 -36 129 -92 175 -124 229 -159 857 -598 883
-617 17 -11 58 -41 93 -66 34 -25 61 -48 58 -52 -2 -4 -7 -45 -10 -92 -4 -47
-10 -112 -13 -145 -3 -33 -6 -78 -8 -100 -8 -117 -17 -229 -20 -246 -4 -18 7
-19 371 -19 l375 0 -6 103 c-3 56 -8 129 -10 162 -2 33 -6 121 -9 195 l-7 135
82 50 c46 28 94 57 108 65 31 18 96 60 166 105 28 18 163 104 300 190 467 294
570 359 575 366 3 4 5 701 5 1549 l-1 1542 21 13 c53 33 864 511 890 525 17 8
55 31 85 51 30 19 66 40 80 47 14 7 50 28 80 46 55 34 170 102 242 142 21 12
43 26 50 32 7 5 31 20 53 32 22 12 105 61 185 108 335 197 1080 637 1145 675
38 23 77 47 86 52 10 6 43 25 73 43 31 17 58 32 61 32 3 0 5 -1384 5 -3075 0
-1691 3 -3075 8 -3074 4 0 187 91 407 202 l400 202 5 3082 5 3082 48 31 c26
16 50 30 52 30 2 0 52 29 110 65 59 36 108 65 109 65 2 0 78 45 170 100 92 55
171 100 177 100 5 0 9 5 9 10 0 6 4 10 9 10 5 0 46 23 91 50 45 28 83 50 84
50 1 0 51 29 111 65 59 36 110 63 112 61 5 -5 6 -7037 1 -7040 -7 -5 -433
-255 -530 -311 -10 -5 -70 -41 -135 -79 -170 -101 -331 -194 -383 -224 -25
-13 -57 -33 -72 -43 -14 -11 -29 -19 -33 -19 -3 0 -31 -16 -61 -35 -30 -19
-56 -35 -58 -35 -2 0 -104 -59 -227 -131 -123 -73 -240 -141 -259 -152 -19
-10 -125 -72 -235 -137 -190 -112 -293 -172 -555 -323 -63 -37 -122 -71 -130
-76 -8 -5 -136 -80 -285 -167 -148 -87 -314 -184 -368 -216 -53 -32 -100 -58
-103 -58 -3 0 -18 -8 -32 -19 -15 -10 -97 -59 -182 -108 -85 -50 -233 -136
-329 -192 -96 -56 -193 -113 -215 -125 -40 -23 -993 -580 -1456 -851 -129 -75
-278 -162 -330 -193 -52 -30 -116 -67 -142 -83 l-46 -28 0 280 c0 248 2 281
16 287 9 3 115 64 237 135 186 110 305 179 490 287 17 9 95 56 175 102 186
110 220 130 305 179 39 22 86 49 105 61 226 133 963 564 1005 588 17 9 125 73
240 140 116 68 271 159 345 202 114 66 135 82 139 105 6 36 12 3644 9 5126
l-3 1128 -85 -60 c-47 -33 -107 -76 -135 -95 -27 -19 -126 -89 -220 -155
l-170 -121 0 -2689 c0 -1480 -3 -2692 -5 -2694 -4 -4 -303 -174 -420 -239 -25
-14 -108 -61 -185 -105 -77 -44 -160 -91 -185 -105 -233 -131 -1031 -584
-1050 -596 -14 -9 -27 -17 -30 -17 -3 0 -39 -20 -80 -44 -154 -90 -191 -111
-195 -111 -3 0 -42 -22 -87 -49 -46 -27 -189 -108 -318 -181 -129 -73 -240
-136 -246 -141 -6 -5 -75 29 -170 82 -87 50 -181 103 -209 118 -27 15 -165 93
-305 173 -140 80 -280 159 -310 175 -30 17 -84 48 -120 68 -36 21 -81 46 -100
57 -19 11 -156 89 -305 173 -148 84 -286 162 -305 174 -19 11 -42 24 -50 28
-8 4 -55 30 -105 58 -259 148 -688 390 -763 431 -26 15 -53 32 -61 40 -13 12
-15 377 -15 2723 -1 2396 -3 2712 -16 2724 -8 8 -82 49 -165 92 -218 113 -333
174 -390 205 -27 16 -59 30 -70 32 -20 3 -20 -3 -20 -3095 l-1 -3097 92 -55
c51 -30 95 -55 99 -55 4 0 19 -8 33 -19 15 -10 216 -128 447 -261 231 -134
462 -267 513 -297 106 -61 211 -122 437 -253 88 -51 176 -102 195 -113 19 -10
73 -42 120 -70 89 -52 132 -77 190 -109 19 -11 49 -27 65 -37 35 -21 504 -294
555 -323 57 -33 144 -82 162 -93 9 -5 61 -36 116 -67 l98 -57 -2 -118 c-1 -65
-5 -170 -9 -233 -4 -63 -7 -132 -8 -152 0 -21 -2 -38 -4 -38 -6 0 -375 211
-405 231 -15 11 -29 19 -32 19 -4 0 -254 142 -595 339 -69 39 -126 71 -128 71
-2 0 -20 11 -41 23 -20 13 -68 41 -107 62 -38 21 -77 44 -86 51 -8 8 -18 14
-21 14 -4 0 -66 34 -140 76 -162 93 -188 108 -235 135 -21 12 -245 139 -498
284 -253 144 -476 272 -495 283 -19 11 -91 52 -158 91 -68 39 -125 71 -126 71
-2 0 -70 39 -152 86 -141 82 -190 110 -275 158 -20 12 -61 35 -90 52 -30 17
-81 46 -114 64 -33 18 -64 36 -70 40 -10 8 -37 23 -135 78 -25 14 -119 68
-210 120 -91 52 -185 106 -210 120 -64 36 -139 79 -450 257 -151 86 -295 169
-320 182 -25 14 -72 41 -105 61 -65 38 -121 69 -175 99 -19 10 -66 37 -105 60
-109 64 -567 325 -596 340 -15 7 -31 19 -36 26 -7 9 -11 7111 -4 7125 3 5 14
0 73 -38z"/>
<path d="M7967 14486 c-59 -36 -111 -66 -115 -68 -8 -3 -205 -116 -262 -150
-19 -11 -161 -93 -315 -182 -290 -168 -379 -220 -405 -236 -32 -20 -458 -265
-510 -293 -30 -17 -84 -48 -120 -70 -36 -22 -83 -50 -105 -62 -22 -12 -139
-79 -260 -150 -121 -70 -233 -136 -250 -145 -16 -9 -102 -59 -190 -110 -88
-51 -216 -125 -285 -165 -69 -39 -181 -104 -250 -144 -69 -40 -195 -114 -280
-163 -85 -49 -162 -94 -170 -98 -8 -5 -82 -48 -165 -96 -82 -48 -163 -95 -180
-105 -16 -10 -53 -30 -82 -45 -29 -15 -50 -31 -48 -34 2 -4 55 -37 117 -74 62
-37 142 -86 178 -108 350 -216 431 -261 453 -250 36 18 151 83 162 92 6 4 30
18 55 32 25 14 137 78 250 143 113 65 225 129 249 143 25 14 67 38 93 53 27
16 53 29 58 29 6 0 10 5 10 10 0 6 4 10 9 10 6 0 377 208 471 265 14 9 72 42
130 76 58 33 112 64 120 69 13 8 225 129 285 162 11 6 58 34 105 61 47 27 103
59 125 72 41 23 554 316 590 337 56 33 398 230 527 304 80 46 152 84 158 84 7
0 68 -32 137 -71 69 -39 146 -82 171 -96 26 -14 97 -54 157 -88 61 -34 130
-73 155 -87 44 -25 416 -233 495 -278 22 -13 74 -42 115 -65 351 -196 837
-469 845 -475 10 -7 121 -69 185 -102 19 -10 42 -23 50 -28 13 -9 163 -94 350
-198 25 -14 153 -86 285 -160 132 -74 301 -168 375 -210 74 -41 147 -83 161
-93 l27 -19 68 53 c38 28 74 57 80 62 6 6 47 37 90 70 43 33 84 65 90 70 6 6
70 55 142 110 72 55 131 104 132 108 0 4 -8 11 -17 14 -10 4 -46 24 -81 45
-34 21 -67 38 -72 38 -6 0 -10 5 -10 10 0 6 -5 10 -11 10 -6 0 -37 15 -68 34
-31 18 -76 45 -101 58 -73 41 -244 138 -260 148 -8 6 -22 13 -30 17 -8 4 -49
27 -90 51 -41 25 -124 73 -185 107 -60 34 -159 90 -220 125 -60 35 -130 74
-155 88 -25 14 -88 50 -140 80 -52 30 -115 66 -140 80 -25 14 -49 28 -55 32
-5 4 -35 21 -65 37 -49 27 -357 202 -437 249 -28 17 -191 110 -293 167 -19 11
-48 28 -65 38 -16 11 -36 22 -44 26 -8 3 -95 53 -195 111 -100 57 -206 118
-236 135 -75 41 -451 255 -470 266 -34 21 -359 207 -410 234 -30 16 -59 33
-65 38 -20 15 -225 129 -232 129 -5 0 -57 -29 -116 -64z"/>
<path d="M7969 12283 c-90 -52 -173 -99 -184 -104 -11 -5 -33 -18 -50 -28 -16
-10 -84 -49 -150 -86 -194 -109 -207 -117 -257 -146 -27 -16 -51 -29 -53 -29
-3 0 -33 -17 -67 -38 -35 -21 -90 -53 -123 -71 -59 -32 -296 -167 -425 -241
-36 -21 -182 -104 -325 -185 -355 -201 -485 -276 -485 -280 0 -3 125 -85 145
-95 6 -3 49 -31 97 -62 47 -31 119 -78 160 -104 40 -26 124 -81 186 -121 165
-108 141 -106 268 -28 233 141 534 325 641 391 62 38 258 158 437 267 l324
197 157 -90 c87 -49 162 -90 166 -90 5 0 9 -4 9 -10 0 -5 4 -10 10 -10 5 0 47
-22 92 -49 46 -26 223 -128 393 -226 171 -98 326 -188 345 -200 19 -12 64 -38
100 -57 36 -20 121 -68 188 -108 l124 -71 36 24 c21 14 105 75 187 136 83 61
212 157 288 212 75 56 137 105 137 109 0 4 -8 10 -17 14 -10 3 -36 17 -58 31
-22 14 -87 52 -145 85 -58 34 -112 65 -120 70 -8 5 -67 40 -130 76 -117 68
-133 77 -230 133 -30 17 -62 36 -70 41 -8 5 -62 37 -120 70 -142 82 -138 80
-197 117 -29 18 -55 33 -58 33 -4 0 -67 36 -141 80 -75 44 -137 80 -138 80 -2
0 -52 29 -111 65 -59 36 -109 65 -112 65 -3 0 -45 25 -95 55 -49 30 -91 55
-93 55 -5 0 -214 122 -267 156 -21 13 -40 24 -44 24 -3 0 -18 9 -33 19 l-27
20 -165 -96z"/>
<path d="M7180 3825 c-349 -218 -636 -399 -638 -403 -1 -4 15 -16 35 -27 21
-11 63 -34 93 -51 30 -18 143 -80 250 -139 l195 -108 55 29 c30 15 89 47 130
70 117 65 537 297 615 339 39 21 97 53 129 72 32 19 64 32 71 29 7 -2 209
-124 450 -271 241 -147 448 -271 460 -277 17 -8 44 4 150 64 72 41 162 92 200
113 39 22 82 46 96 55 15 8 74 42 133 75 58 33 106 62 106 65 0 3 -19 16 -43
29 -68 39 -907 515 -1087 617 l-166 93 -164 5 c-91 3 -226 8 -300 11 l-135 6
-635 -396z"/>
</g>
</svg>
